<mxfile modified="2024-06-11T22:52:34.986Z" host="app.diagrams.net" agent="Mozilla/5.0 (Macintosh; Intel Mac OS X 10_15_7) AppleWebKit/537.36 (KHTML, like Gecko) Chrome/125.0.0.0 Safari/537.36" etag="kwAFYMfIjbK4rLkA75K1" version="24.5.2" type="github">
  <diagram id="l2aKFoh6-Bn0gOPZ2l0T" name="Page-1">
    <mxGraphModel dx="1224" dy="738" grid="1" gridSize="10" guides="1" tooltips="1" connect="1" arrows="1" fold="1" page="1" pageScale="1" pageWidth="1169" pageHeight="827" math="0" shadow="0">
      <root>
        <mxCell id="0" />
        <mxCell id="1" parent="0" />
        <mxCell id="-xwRFm0Tx_RUN6PoLPQu-6" value="ASA&lt;div&gt;&lt;br&gt;&lt;/div&gt;" style="shape=mxgraph.cisco.security.pix_firewall;sketch=0;html=1;pointerEvents=1;dashed=0;fillColor=#036897;strokeColor=#ffffff;strokeWidth=2;verticalLabelPosition=bottom;verticalAlign=top;align=center;outlineConnect=0;" vertex="1" parent="1">
          <mxGeometry x="547" y="10" width="77" height="51" as="geometry" />
        </mxCell>
        <mxCell id="-xwRFm0Tx_RUN6PoLPQu-9" value="LB" style="shape=mxgraph.cisco.directors.localdirector;sketch=0;html=1;pointerEvents=1;dashed=0;fillColor=#036897;strokeColor=#ffffff;strokeWidth=2;verticalLabelPosition=bottom;verticalAlign=top;align=center;outlineConnect=0;" vertex="1" parent="1">
          <mxGeometry x="546" y="150" width="78" height="51" as="geometry" />
        </mxCell>
        <mxCell id="-xwRFm0Tx_RUN6PoLPQu-39" style="edgeStyle=orthogonalEdgeStyle;rounded=0;orthogonalLoop=1;jettySize=auto;html=1;shape=link;fillColor=#f8cecc;strokeColor=#b85450;" edge="1" parent="1" source="-xwRFm0Tx_RUN6PoLPQu-11">
          <mxGeometry relative="1" as="geometry">
            <mxPoint x="790" y="345" as="targetPoint" />
          </mxGeometry>
        </mxCell>
        <mxCell id="-xwRFm0Tx_RUN6PoLPQu-40" style="edgeStyle=orthogonalEdgeStyle;rounded=0;orthogonalLoop=1;jettySize=auto;html=1;exitX=0;exitY=0.5;exitDx=0;exitDy=0;exitPerimeter=0;shape=link;fillColor=#dae8fc;strokeColor=#6c8ebf;" edge="1" parent="1" source="-xwRFm0Tx_RUN6PoLPQu-11">
          <mxGeometry relative="1" as="geometry">
            <mxPoint x="440" y="345" as="targetPoint" />
            <Array as="points">
              <mxPoint x="470" y="345" />
              <mxPoint x="470" y="346" />
            </Array>
          </mxGeometry>
        </mxCell>
        <mxCell id="-xwRFm0Tx_RUN6PoLPQu-11" value="Nexus 5K&amp;nbsp;&lt;div&gt;Switch&lt;/div&gt;" style="sketch=0;points=[[0.015,0.015,0],[0.985,0.015,0],[0.985,0.985,0],[0.015,0.985,0],[0.25,0,0],[0.5,0,0],[0.75,0,0],[1,0.25,0],[1,0.5,0],[1,0.75,0],[0.75,1,0],[0.5,1,0],[0.25,1,0],[0,0.75,0],[0,0.5,0],[0,0.25,0]];verticalLabelPosition=bottom;html=1;verticalAlign=top;aspect=fixed;align=center;pointerEvents=1;shape=mxgraph.cisco19.rect;prIcon=nexus_5k;fillColor=#FAFAFA;strokeColor=#005073;" vertex="1" parent="1">
          <mxGeometry x="520" y="270" width="150" height="150" as="geometry" />
        </mxCell>
        <mxCell id="-xwRFm0Tx_RUN6PoLPQu-33" style="edgeStyle=orthogonalEdgeStyle;rounded=0;orthogonalLoop=1;jettySize=auto;html=1;shape=link;fillColor=#dae8fc;strokeColor=#6c8ebf;" edge="1" parent="1" source="-xwRFm0Tx_RUN6PoLPQu-12">
          <mxGeometry relative="1" as="geometry">
            <mxPoint x="424" y="505" as="targetPoint" />
          </mxGeometry>
        </mxCell>
        <mxCell id="-xwRFm0Tx_RUN6PoLPQu-12" value="web server 1" style="image;aspect=fixed;perimeter=ellipsePerimeter;html=1;align=center;shadow=0;dashed=0;spacingTop=3;image=img/lib/active_directory/web_server.svg;" vertex="1" parent="1">
          <mxGeometry x="344" y="480" width="40" height="50" as="geometry" />
        </mxCell>
        <mxCell id="-xwRFm0Tx_RUN6PoLPQu-34" style="edgeStyle=orthogonalEdgeStyle;rounded=0;orthogonalLoop=1;jettySize=auto;html=1;exitX=1;exitY=0.5;exitDx=0;exitDy=0;fillColor=#dae8fc;strokeColor=#6c8ebf;shape=link;" edge="1" parent="1" source="-xwRFm0Tx_RUN6PoLPQu-13">
          <mxGeometry relative="1" as="geometry">
            <mxPoint x="424" y="605" as="targetPoint" />
          </mxGeometry>
        </mxCell>
        <mxCell id="-xwRFm0Tx_RUN6PoLPQu-13" value="web server 2" style="image;aspect=fixed;perimeter=ellipsePerimeter;html=1;align=center;shadow=0;dashed=0;spacingTop=3;image=img/lib/active_directory/web_server.svg;" vertex="1" parent="1">
          <mxGeometry x="345" y="580" width="40" height="50" as="geometry" />
        </mxCell>
        <mxCell id="-xwRFm0Tx_RUN6PoLPQu-35" style="edgeStyle=orthogonalEdgeStyle;rounded=0;orthogonalLoop=1;jettySize=auto;html=1;exitX=1;exitY=0.5;exitDx=0;exitDy=0;fillColor=#dae8fc;strokeColor=#6c8ebf;shape=link;" edge="1" parent="1" source="-xwRFm0Tx_RUN6PoLPQu-14">
          <mxGeometry relative="1" as="geometry">
            <mxPoint x="424" y="705" as="targetPoint" />
          </mxGeometry>
        </mxCell>
        <mxCell id="-xwRFm0Tx_RUN6PoLPQu-14" value="web server 3" style="image;aspect=fixed;perimeter=ellipsePerimeter;html=1;align=center;shadow=0;dashed=0;spacingTop=3;image=img/lib/active_directory/web_server.svg;" vertex="1" parent="1">
          <mxGeometry x="345" y="680" width="40" height="50" as="geometry" />
        </mxCell>
        <mxCell id="-xwRFm0Tx_RUN6PoLPQu-43" style="edgeStyle=orthogonalEdgeStyle;rounded=0;orthogonalLoop=1;jettySize=auto;html=1;shape=link;fillColor=#fff2cc;strokeColor=#d6b656;" edge="1" parent="1" source="-xwRFm0Tx_RUN6PoLPQu-16">
          <mxGeometry relative="1" as="geometry">
            <mxPoint x="630" y="510" as="targetPoint" />
          </mxGeometry>
        </mxCell>
        <mxCell id="-xwRFm0Tx_RUN6PoLPQu-16" value="app server 1" style="image;aspect=fixed;perimeter=ellipsePerimeter;html=1;align=center;shadow=0;dashed=0;fontColor=#4277BB;labelBackgroundColor=default;fontSize=12;spacingTop=3;image=img/lib/ibm/applications/app_server.svg;" vertex="1" parent="1">
          <mxGeometry x="544" y="480" width="60" height="60" as="geometry" />
        </mxCell>
        <mxCell id="-xwRFm0Tx_RUN6PoLPQu-37" style="edgeStyle=orthogonalEdgeStyle;rounded=0;orthogonalLoop=1;jettySize=auto;html=1;exitX=1;exitY=0.5;exitDx=0;exitDy=0;fillColor=#fff2cc;strokeColor=#d6b656;shape=link;width=7;" edge="1" parent="1" source="-xwRFm0Tx_RUN6PoLPQu-17">
          <mxGeometry relative="1" as="geometry">
            <mxPoint x="640" y="600" as="targetPoint" />
          </mxGeometry>
        </mxCell>
        <mxCell id="-xwRFm0Tx_RUN6PoLPQu-17" value="app server 2" style="image;aspect=fixed;perimeter=ellipsePerimeter;html=1;align=center;shadow=0;dashed=0;fontColor=#4277BB;labelBackgroundColor=default;fontSize=12;spacingTop=3;image=img/lib/ibm/applications/app_server.svg;" vertex="1" parent="1">
          <mxGeometry x="544" y="570" width="60" height="60" as="geometry" />
        </mxCell>
        <mxCell id="-xwRFm0Tx_RUN6PoLPQu-38" style="edgeStyle=orthogonalEdgeStyle;rounded=0;orthogonalLoop=1;jettySize=auto;html=1;exitX=1;exitY=0.5;exitDx=0;exitDy=0;fillColor=#fff2cc;strokeColor=#d6b656;shape=link;" edge="1" parent="1" source="-xwRFm0Tx_RUN6PoLPQu-18">
          <mxGeometry relative="1" as="geometry">
            <mxPoint x="630" y="700" as="targetPoint" />
          </mxGeometry>
        </mxCell>
        <mxCell id="-xwRFm0Tx_RUN6PoLPQu-18" value="app server 3" style="image;aspect=fixed;perimeter=ellipsePerimeter;html=1;align=center;shadow=0;dashed=0;fontColor=#4277BB;labelBackgroundColor=default;fontSize=12;spacingTop=3;image=img/lib/ibm/applications/app_server.svg;" vertex="1" parent="1">
          <mxGeometry x="544" y="670" width="60" height="60" as="geometry" />
        </mxCell>
        <mxCell id="-xwRFm0Tx_RUN6PoLPQu-46" value="" style="edgeStyle=orthogonalEdgeStyle;rounded=0;orthogonalLoop=1;jettySize=auto;html=1;shape=link;fillColor=#f8cecc;strokeColor=#b85450;" edge="1" parent="1" source="-xwRFm0Tx_RUN6PoLPQu-19">
          <mxGeometry relative="1" as="geometry">
            <mxPoint x="805" y="505" as="targetPoint" />
          </mxGeometry>
        </mxCell>
        <mxCell id="-xwRFm0Tx_RUN6PoLPQu-19" value="DB node 1" style="sketch=0;outlineConnect=0;fontColor=#232F3E;gradientColor=none;fillColor=#C925D1;strokeColor=none;dashed=0;verticalLabelPosition=bottom;verticalAlign=top;align=center;html=1;fontSize=12;fontStyle=0;aspect=fixed;pointerEvents=1;shape=mxgraph.aws4.rds_sql_server_instance;" vertex="1" parent="1">
          <mxGeometry x="710" y="480" width="50" height="50" as="geometry" />
        </mxCell>
        <mxCell id="-xwRFm0Tx_RUN6PoLPQu-48" value="" style="edgeStyle=orthogonalEdgeStyle;rounded=0;orthogonalLoop=1;jettySize=auto;html=1;fillColor=#f8cecc;strokeColor=#b85450;shape=link;" edge="1" parent="1" source="-xwRFm0Tx_RUN6PoLPQu-20">
          <mxGeometry relative="1" as="geometry">
            <mxPoint x="805" y="605" as="targetPoint" />
          </mxGeometry>
        </mxCell>
        <mxCell id="-xwRFm0Tx_RUN6PoLPQu-20" value="DB node 2" style="sketch=0;outlineConnect=0;fontColor=#232F3E;gradientColor=none;fillColor=#C925D1;strokeColor=none;dashed=0;verticalLabelPosition=bottom;verticalAlign=top;align=center;html=1;fontSize=12;fontStyle=0;aspect=fixed;pointerEvents=1;shape=mxgraph.aws4.rds_sql_server_instance;" vertex="1" parent="1">
          <mxGeometry x="710" y="580" width="50" height="50" as="geometry" />
        </mxCell>
        <mxCell id="-xwRFm0Tx_RUN6PoLPQu-50" value="" style="edgeStyle=orthogonalEdgeStyle;rounded=0;orthogonalLoop=1;jettySize=auto;html=1;shape=link;fillColor=#f8cecc;strokeColor=#b85450;" edge="1" parent="1" source="-xwRFm0Tx_RUN6PoLPQu-21">
          <mxGeometry relative="1" as="geometry">
            <mxPoint x="805" y="700" as="targetPoint" />
          </mxGeometry>
        </mxCell>
        <mxCell id="-xwRFm0Tx_RUN6PoLPQu-21" value="DB node 3" style="sketch=0;outlineConnect=0;fontColor=#232F3E;gradientColor=none;fillColor=#C925D1;strokeColor=none;dashed=0;verticalLabelPosition=bottom;verticalAlign=top;align=center;html=1;fontSize=12;fontStyle=0;aspect=fixed;pointerEvents=1;shape=mxgraph.aws4.rds_sql_server_instance;" vertex="1" parent="1">
          <mxGeometry x="710" y="675" width="50" height="50" as="geometry" />
        </mxCell>
        <mxCell id="-xwRFm0Tx_RUN6PoLPQu-27" value="" style="shape=flexArrow;endArrow=classic;startArrow=classic;html=1;rounded=0;fillColor=#fff2cc;strokeColor=#d6b656;entryX=0.707;entryY=1;entryDx=0;entryDy=0;entryPerimeter=0;" edge="1" parent="1">
          <mxGeometry width="100" height="100" relative="1" as="geometry">
            <mxPoint x="634" y="773" as="sourcePoint" />
            <mxPoint x="632.05" y="420" as="targetPoint" />
          </mxGeometry>
        </mxCell>
        <mxCell id="-xwRFm0Tx_RUN6PoLPQu-28" value="&lt;font color=&quot;#ff8000&quot;&gt;VLAN2&lt;/font&gt;" style="edgeLabel;html=1;align=center;verticalAlign=middle;resizable=0;points=[];" vertex="1" connectable="0" parent="-xwRFm0Tx_RUN6PoLPQu-27">
          <mxGeometry x="0.5063" relative="1" as="geometry">
            <mxPoint as="offset" />
          </mxGeometry>
        </mxCell>
        <mxCell id="-xwRFm0Tx_RUN6PoLPQu-29" value="" style="shape=flexArrow;endArrow=classic;startArrow=classic;html=1;rounded=0;fillColor=#dae8fc;strokeColor=#6c8ebf;" edge="1" parent="1">
          <mxGeometry width="100" height="100" relative="1" as="geometry">
            <mxPoint x="434" y="770" as="sourcePoint" />
            <mxPoint x="434" y="310" as="targetPoint" />
          </mxGeometry>
        </mxCell>
        <mxCell id="-xwRFm0Tx_RUN6PoLPQu-30" value="&lt;font color=&quot;#66b2ff&quot;&gt;VLAN1&lt;/font&gt;" style="edgeLabel;html=1;align=center;verticalAlign=middle;resizable=0;points=[];" vertex="1" connectable="0" parent="-xwRFm0Tx_RUN6PoLPQu-29">
          <mxGeometry x="0.5063" relative="1" as="geometry">
            <mxPoint as="offset" />
          </mxGeometry>
        </mxCell>
        <mxCell id="-xwRFm0Tx_RUN6PoLPQu-31" value="" style="shape=flexArrow;endArrow=classic;startArrow=classic;html=1;rounded=0;fillColor=#f8cecc;strokeColor=#b85450;" edge="1" parent="1">
          <mxGeometry width="100" height="100" relative="1" as="geometry">
            <mxPoint x="800" y="770" as="sourcePoint" />
            <mxPoint x="800" y="320" as="targetPoint" />
          </mxGeometry>
        </mxCell>
        <mxCell id="-xwRFm0Tx_RUN6PoLPQu-32" value="VLAN3" style="edgeLabel;html=1;align=center;verticalAlign=middle;resizable=0;points=[];fontColor=#d27474;" vertex="1" connectable="0" parent="-xwRFm0Tx_RUN6PoLPQu-31">
          <mxGeometry x="0.5063" relative="1" as="geometry">
            <mxPoint as="offset" />
          </mxGeometry>
        </mxCell>
        <mxCell id="-xwRFm0Tx_RUN6PoLPQu-53" style="edgeStyle=orthogonalEdgeStyle;rounded=0;orthogonalLoop=1;jettySize=auto;html=1;entryX=0.437;entryY=0.02;entryDx=0;entryDy=0;entryPerimeter=0;shape=flexArrow;" edge="1" parent="1" source="-xwRFm0Tx_RUN6PoLPQu-9" target="-xwRFm0Tx_RUN6PoLPQu-11">
          <mxGeometry relative="1" as="geometry" />
        </mxCell>
        <mxCell id="-xwRFm0Tx_RUN6PoLPQu-54" style="rounded=0;orthogonalLoop=1;jettySize=auto;html=1;entryX=0.5;entryY=0;entryDx=0;entryDy=0;entryPerimeter=0;shape=flexArrow;" edge="1" parent="1" source="-xwRFm0Tx_RUN6PoLPQu-6" target="-xwRFm0Tx_RUN6PoLPQu-9">
          <mxGeometry relative="1" as="geometry" />
        </mxCell>
        <mxCell id="-xwRFm0Tx_RUN6PoLPQu-55" value="&lt;span style=&quot;color: rgb(88, 88, 91); font-family: CiscoSans, Arial, sans-serif; font-size: 14px; text-align: left; background-color: rgb(255, 255, 255);&quot;&gt;3-tier Segregation using VLANs&lt;/span&gt;" style="label;whiteSpace=wrap;html=1;align=center;verticalAlign=bottom;spacingLeft=0;spacingBottom=4;imageAlign=center;imageVerticalAlign=top;image=img/clipart/Gear_128x128.png" vertex="1" parent="1">
          <mxGeometry x="230" y="10" width="120" height="110" as="geometry" />
        </mxCell>
        <mxCell id="-xwRFm0Tx_RUN6PoLPQu-56" value="LB-vip" style="text;html=1;align=center;verticalAlign=middle;whiteSpace=wrap;rounded=0;" vertex="1" parent="1">
          <mxGeometry x="590" y="120" width="60" height="30" as="geometry" />
        </mxCell>
      </root>
    </mxGraphModel>
  </diagram>
</mxfile>
